<svg width="45" height="45" viewBox="0 0 45 45" fill="none" xmlns="http://www.w3.org/2000/svg">
<g clip-path="url(#clip0_218_1014)">
<path d="M11.8406 11.5802C11.3718 10.3839 11.3906 9.01703 11.5987 7.76641C13.0315 8.19573 14.3772 8.87493 15.5737 9.77266C16.0987 10.1739 16.7868 10.3033 17.4281 10.1102C19.0735 9.61785 20.7824 9.3702 22.4999 9.37516C24.3018 9.37516 26.0137 9.63766 27.5681 10.1083C28.2093 10.3033 28.8974 10.172 29.4206 9.77078C30.6164 8.87325 31.9615 8.19406 33.3937 7.76453C33.6018 9.01516 33.6187 10.382 33.1537 11.5764C32.8724 12.2964 33.0131 13.1252 33.5437 13.7139C34.9012 15.2195 35.6249 16.9502 35.6249 18.7502C35.6249 22.7139 31.9312 26.6008 25.9987 27.7839C24.5137 28.0802 23.9343 29.9495 25.0706 31.0202C25.7999 31.7064 26.2499 32.6739 26.2499 33.7502V39.3752C26.2499 39.8724 26.4475 40.3494 26.7991 40.701C27.1507 41.0526 27.6277 41.2502 28.1249 41.2502C28.6222 41.2502 29.0991 41.0526 29.4508 40.701C29.8024 40.3494 29.9999 39.8724 29.9999 39.3752V33.7502C29.9999 32.6814 29.7749 31.6652 29.3737 30.7445C35.0306 28.7814 39.3749 24.362 39.3749 18.7502C39.3749 16.2245 38.4674 13.9033 36.9618 11.9589C37.3556 10.4214 37.3199 8.87266 37.1699 7.68391C37.0368 6.61891 36.8512 5.22391 36.1012 4.39141C34.9856 3.15578 33.1387 3.88328 31.8262 4.33141C30.4182 4.80782 29.0787 5.46655 27.8418 6.29078C26.0962 5.84531 24.3015 5.62167 22.4999 5.62516C20.6362 5.62516 18.8381 5.85953 17.1543 6.29266C15.9174 5.4684 14.5779 4.80968 13.1699 4.33328C11.8574 3.88328 10.0087 3.15578 8.89307 4.39141C8.12807 5.23891 7.96869 6.52328 7.83182 7.61453L7.82244 7.68578C7.67244 8.87641 7.63869 10.427 8.03244 11.9664C6.53244 13.9089 5.62494 16.2264 5.62494 18.7502C5.62494 24.3602 9.96932 28.7814 15.6262 30.7445C15.2167 31.6807 15.0036 32.6909 14.9999 33.7127L14.6849 33.7764C13.3406 33.962 12.4799 33.7952 11.8949 33.5477C10.4699 32.9439 9.73494 31.4233 8.83869 30.2608C8.27994 29.5389 7.46619 28.637 6.21744 28.2208C5.98377 28.143 5.73706 28.112 5.4914 28.1295C5.24574 28.147 5.00594 28.2128 4.78569 28.323C4.34088 28.5456 4.00271 28.9357 3.84557 29.4077C3.68843 29.8796 3.72519 30.3946 3.94777 30.8394C4.17036 31.2842 4.56052 31.6224 5.03244 31.7795C6.07869 32.1283 6.80244 33.9208 7.46619 34.7158C8.16557 35.5558 9.09557 36.4333 10.4287 36.9995C11.7074 37.5433 13.2093 37.7364 14.9999 37.517V39.3752C14.9999 39.8724 15.1975 40.3494 15.5491 40.701C15.9007 41.0526 16.3777 41.2502 16.8749 41.2502C17.3722 41.2502 17.8491 41.0526 18.2008 40.701C18.5524 40.3494 18.7499 39.8724 18.7499 39.3752V33.7502C18.7499 32.6739 19.1999 31.7064 19.9293 31.0202C21.0674 29.9477 20.4862 28.0802 19.0012 27.7839C13.0668 26.6008 9.37494 22.7139 9.37494 18.7502C9.37494 16.9539 10.0968 15.2233 11.4524 13.7177C11.9831 13.1289 12.1218 12.3002 11.8406 11.5802Z" fill="white"/>
</g>
<defs>
<clipPath id="clip0_218_1014">
<rect width="45" height="45" fill="white"/>
</clipPath>
</defs>
</svg>
